<svg width="50" height="50" viewBox="0 0 50 50" fill="none" xmlns="http://www.w3.org/2000/svg">
<circle cx="25" cy="25" r="25" fill="#E6ECEF"/>
<path d="M36.9823 18.1701C36.9823 18.1427 37.0011 18.116 36.9999 18.0889L29.6759 25.1459L36.9911 31.9775C36.9954 31.9287 36.9823 31.8795 36.9823 31.8297V18.1701V18.1701Z" fill="#203846"/>
<path d="M28.5579 26.2319L25.5681 29.1086C25.4168 29.2541 25.2214 29.3271 25.0258 29.3271C24.8344 29.3271 24.643 29.2572 24.4927 29.1172L21.511 26.3387L14.148 33.4358C14.327 33.5001 14.5192 33.5501 14.7205 33.5501H35.3313C35.6302 33.5501 35.9105 33.459 36.1541 33.3233L28.5579 26.2319Z" fill="#203846"/>
<path d="M25.0173 27.4682L36.1947 16.7011C35.9417 16.5506 35.6471 16.4497 35.3314 16.4497H14.7205C14.3093 16.4497 13.9326 16.6093 13.6392 16.8528L25.0173 27.4682Z" fill="#203846"/>
<path d="M13 18.4321V31.8293C13 31.9831 13.0353 32.1313 13.0737 32.273L20.3454 25.2706L13 18.4321Z" fill="#203846"/>
</svg>
