<svg width="50" height="50" viewBox="0 0 50 50" fill="none" xmlns="http://www.w3.org/2000/svg">
<circle cx="25" cy="25" r="25" fill="#E6ECEF"/>
<path d="M24.9985 13.2495C18.373 13.2495 13 18.6435 13 25.2975C13 30.6195 16.438 35.1345 21.208 36.729C21.808 36.84 22.027 36.468 22.027 36.1485C22.027 35.862 22.0165 35.1045 22.0105 34.0995C18.673 34.827 17.968 32.484 17.968 32.484C17.4235 31.092 16.636 30.7215 16.636 30.7215C15.5455 29.9745 16.717 29.9895 16.717 29.9895C17.9215 30.075 18.5545 31.2315 18.5545 31.2315C19.6255 33.072 21.364 32.541 22.048 32.232C22.156 31.4535 22.4665 30.9225 22.81 30.621C20.146 30.3165 17.344 29.283 17.344 24.6675C17.344 23.352 17.812 22.2765 18.58 21.4335C18.4555 21.129 18.0445 19.9035 18.697 18.246C18.697 18.246 19.705 17.922 21.997 19.4805C22.954 19.2135 23.98 19.08 25.0015 19.0755C26.02 19.0815 27.0475 19.2135 28.006 19.482C30.2965 17.9235 31.303 18.2475 31.303 18.2475C31.957 19.9065 31.546 21.1305 31.423 21.435C32.1925 22.278 32.656 23.3535 32.656 24.669C32.656 29.2965 29.851 30.315 27.178 30.6135C27.6085 30.9855 27.9925 31.7205 27.9925 32.844C27.9925 34.455 27.9775 35.754 27.9775 36.1485C27.9775 36.471 28.1935 36.846 28.8025 36.7275C33.565 35.1315 37 30.618 37 25.2975C37 18.6435 31.627 13.2495 24.9985 13.2495Z" fill="#203846"/>
</svg>
